<?xml version="1.0" standalone="no"?>
<!DOCTYPE svg PUBLIC "-//W3C//DTD SVG 1.1//EN" "http://www.w3.org/Graphics/SVG/1.1/DTD/svg11.dtd" >
<svg xmlns="http://www.w3.org/2000/svg">
<metadata>
This is a custom SVG webfont generated by Font Squirrel.
Copyright   : Damned Architect  1997 Phillip Cavette this is my dads handwritting
</metadata>
<defs>
<font id="webfontykre5Izj" horiz-adv-x="2048" >
<font-face units-per-em="2048" ascent="1638" descent="-410" />
<missing-glyph horiz-adv-x="512" />
<glyph unicode=" "  horiz-adv-x="512" />
<glyph unicode="&#x09;" horiz-adv-x="512" />
<glyph unicode="&#xa0;" horiz-adv-x="512" />
<glyph unicode="!" horiz-adv-x="2330" d="M2028 1122q0 -51 -41 -123q-43 -78 -82 -77q-18 0 -35 10q-6 8 -23 20q-4 10 -4 13q2 0 5 4t5 4q12 -14 39 -37h13q39 0 80 84q33 70 32 96q0 55 -41 55q-4 0 -10 -2t-8 -2q-33 -6 -131 -51h-8q-2 0 -2 21q6 0 75.5 23.5t89.5 23.5q46 -1 46 -62zM1051 1552h-9v4h9v-4z M2314 166q0 -82 -84 -113h-10q-2 6 -6 13q10 10 18 10q4 0 2 0q0 -2 4 -2q10 0 25 12q41 33 41 84q0 25 -39 117q-20 47 -90 127l-98 108v13h14q55 -63 150 -185q16 -23 44.5 -86t28.5 -98zM971 1536l-29 -10v4l27 10zM2056 526q-25 0 -65 2q-2 2 -13 7l-84 10h-108 q2 0 -60 0q-61 -2 -92 -2q-2 6 0 20q16 -6 27 -6h221q2 0 39 -3t51 -5q27 2 84 -10v-13zM1821 969q0 -229 -158 -367q-135 -119 -375 -156q-6 -2 -22 -8q14 -27 55 -88q12 -25 47 -65q8 0 27 -2v-11q-6 2 -19 -12q2 0 2 -2h6q27 0 103 41l10 10q25 16 68 51q33 27 86 97 q45 57 84 78l12 -5v-10q-41 -16 -94 -86q-35 -49 -76 -86q-33 -31 -92 -65q-74 -43 -109 -43q-4 0 -20 8q-49 -35 -45 -60h-11q-8 2 -12 2q-8 0 -24.5 -15t-18.5 -23l-26 -13q-6 -4 -23 -26q-6 -2 -16 -7q0 -14 24 -32q-2 -8 0 -25q8 -14 23 -49l16 -63q6 -16 23 -50 q0 -6 3 -18t13 -33q6 -2 16 -31q12 -10 23 -8q0 -6 2 -10q2 -6 -4 -12q0 -20 14 -21q37 0 33 0q-31 -31 -33 -30q-4 0 -5 3t-5 3q-35 0 -156 -90h-14l-2 4v12q10 10 12 10q4 0 2 -2h4q4 0 56 31q66 39 88 51q0 2 -13 23l-206 -58q-2 0 -8.5 -6t-10.5 -6q-2 0 -28.5 7 t-30.5 7t-8 -2l-4 -2q-2 2 -7 8q-2 4 4 13l-63 53q-8 10 -8 27q0 8 8 16l10 10q59 127 94 211q-6 12 2 39q0 -2 3.5 -3t5.5 -3q4 4 10 16h10q2 0 2 -28q-2 0 88 12l4 4q-8 12 -8 25q-20 6 -35 6q-4 0 -15 -4.5t-15 -4.5q-12 0 -46 55.5t-37 56.5t-12 3q-16 4 -12 31 q-59 16 -194 72q-35 14 -105 51q-37 23 -57 45q-10 12 -10 41v16l6 8q8 -4 18 -40.5t88 -79.5q186 -98 273 -99q10 0 10 6t-4 11q-8 0 -8 -9l-17 5l-2 2v6q0 2 24.5 50t32 66.5t15.5 28.5l-123 25q-14 2 -127 35q-16 6 -59 24.5t-46 18.5q2 0 -20 -13q-2 18 -16 19 q-70 0 -252 -54q-160 -45 -197 -61q-25 -8 -74 -37q2 0 9 -4v-10q-14 -4 -41 -19q-10 -6 -17 -30l-8 -33q-23 -51 -23 -133q0 -76 68 -140l8 7q4 -4 13 -27q-4 -4 -5 -8h-10q-88 76 -88 174q0 72 43 192q0 6 2 19q12 23 35 49q2 -2 3 -11t5 -9l199 69q162 49 321 76 q0 2 2.5 3t4.5 1q-186 115 -213 276q-10 63 -11 72q0 37 6 64q14 61 43 135q35 47 91 131q0 8 5 24.5t19 47.5q0 14 6 43q18 61 72 116q-2 2 -6 2q-33 0 -98.5 -32.5t-84 -57t-18.5 -57.5q0 -10 4 -19q4 8 15 23v-12q-2 -10 -2 -21q25 12 36 27q-2 -8 -17 -28.5t-15 -24.5 t5 -15.5t5 -13.5v-12q-2 -4 -10 -4q-27 0 -41 38q-12 27 -13 48q0 37 35 79q14 20 55 72q39 39 109 68q63 23 205 51q23 8 74 19.5t106 11.5q59 0 80 -13q-6 -16 -21 -16h-2q0 2 -2 2q6 0 -53 -25q-6 -2 2 -2q-16 -6 -49 -14q0 6 43 25q18 4 53 24q-8 4 -13 4t-34 2h-31 q-86 0 -127 -24q-2 -6 -8 -19q-18 8 -16 9q-29 0 -117 -68q2 -2 12 -2q47 0 129 18q29 6 66 23l-6 -6q31 -8 35 -8q-6 0 28.5 8t96.5 32q-4 2 -37 0l29 6q17 3 26 17q20 -20 31 -20q-14 0 65 10q68 10 121 10h21h20q35 0 154 -27q10 -6 28 -12q98 -14 150 -88q10 -27 39 -78 q47 -63 47 -96q0 -23 -49 -23q-2 -2 -2 -8q0 -2 20 -35q23 -43 37 -73q29 -59 29 -170zM471 1141q0 -45 -25 -45q-8 0 -12 4l23 39q0 12 -19 12q-6 0 -49 -25q-18 -10 -57 -36q-70 -66 -86 -99q-6 -12 -6 -24q0 -63 92 -64h30q14 0 21 21q4 12 12 12h13q2 -4 2 -8 q0 8 -21 -31q-27 -8 -47 -8q-115 0 -115 67q0 35 21 70q14 18 55 57l62 43q63 43 79 43q27 1 27 -28zM1688 1448l-19 20l-4 -2l18 -22zM1667 1470l-16 15l-4 -4l16 -13zM1702 1423l-12 23l-4 -2l12 -21h4zM1708 1411l-4 10h-4l4 -10h4zM1663 1448l-2 10l-4 -2l2 -8h4z M1772 1286q0 12 -10.5 34.5t-18.5 25.5q-4 -8 -17 -9q0 -6 7 -41q2 -18 -7 -24h37q9 6 9 14zM1718 1300v21q2 29 -12 53q-27 45 -117 82q-25 10 -51 10q-8 0 -14 -8q6 -6 2 -10q-8 0 -21 -4q29 -16 82 -51l49 -43q29 -11 82 -50zM1645 1446q-2 6 -29 33.5t-35 27.5 q-4 0 -3 -2t-3 -2q14 0 -39 17q-10 0 -31 4q0 -20 2 -21q-6 4 -13 12.5t-15 8.5q-4 0 -11 -2h-10q-16 0 -20 12l10 8l-16 17q-2 2 -25 4q-39 4 -66 4l-129 -8q0 -18 -6 -22.5t-14 -4.5q-18 -12 -39 -39h27h37q33 2 35.5 2t20 20.5t23.5 26.5q2 -8 11 -24l-4 -7l-3 2 q-2 2 -6 3q-10 0 -18 -21h10q74 20 86 21q6 0 10 -9q-2 0 -59 -14q10 -2 39 -7t33 -5q10 0 22 6v24q-4 4 -8 13l2 12q12 -4 23 -49q27 -20 22 -21q4 0 13.5 8.5t13.5 8.5q37 0 162 -37zM1442 1452q-2 4 -8 4q-6 -6 -7 -12q5 0 15 8zM1483 1430v10q-14 6 -19 6l-37 -27 q0 -14 9.5 -38.5t21.5 -24.5h10l5 10q4 10 7 35t3 29zM1430 1362l-17 29v-21q11 -10 17 -8zM1374 1470q-39 10 -71 11q-35 0 -35 -29q0 -6 4 -6q2 6 16 29h8q12 -23 9 -37q26 7 69 32zM1413 1425l-4 37q-37 -10 -49 -16q-37 -14 -51 -33q2 -16 6 -33q2 -14 -17 -30 q4 0 11.5 -2t9.5 -2q20 0 48 11t30 29q2 27 16 39zM1305 1376q-6 14 -7 21q-10 -12 -4 -27q5 0 11 6zM1270 1366l-17 51q2 8 -10 25v-41q0 -2 10.5 -17.5t16.5 -17.5zM1194 1554q-27 -2 -76 -12q-6 -2 -17 -16.5t-16 -14.5q-2 0 -2 2.5t-2 2.5q-25 0 -32 -37h10q27 4 78 14 q20 28 57 61zM1124 1477q-16 -2 -67 -13q12 -16 20 -16t47 29zM1120 1419v37q-33 -12 -30 -12q12 -13 30 -25zM1030 1516v4l-8 -4v-5zM903 1477l-2 4l-6 -2v-6zM885 1468v5l-8 -5v-4zM874 1462l-2 4l-6 -4v-4zM924 1503q-2 -2 -43 -4q-12 -2 -32 -9l-20 -7q-4 0 0 4 q2 2 -2 2q-82 0 -118 -19q-29 -14 -49.5 -47.5t-22.5 -56.5q57 47 115 80q-45 -31 -113 -103q115 88 285 160zM786 1548q-188 -37 -254 -121q39 23 107 43q25 4 55 11zM1810 973q0 133 -81 262q-14 10 -31 29q-35 72 -162 147l-27 16h-12q-8 -23 -8 -49q0 -18 8 -24 q-8 -4 -9 -18.5t-13 -14.5l-5 4q4 8 3 25q-10 -6 -23 -7q-16 0 -23.5 2.5t-17.5 9.5t-12 7q-4 0 -30 -16.5t-50 -16.5q-8 0 -23 10q-14 4 -34 13q-31 23 -31 65q0 -2 8 41q-23 14 -35 15q-51 0 -65 -15q0 -2 -2 -13t-2 -13q0 -14 4 -33t30.5 -38.5t46.5 -19.5h11q4 2 6 2 q-18 20 -25 31l4 4q37 -25 37 -37t-26 -12q-78 0 -101 82q-16 8 -80 43q-6 -20 -6 -31q0 -18 16.5 -42.5t36.5 -24.5q6 0 23 16l6 -4v-8q0 -18 -22 -19q-35 0 -53.5 31t-18.5 64q0 14 16 65q-74 -37 -73 -94q0 -35 20 -35q2 0 21 6l24 8l-8 -8q-29 -16 -39 -16q-33 0 -33 45 t41 78q6 8 16.5 16t12.5 8l-10 2q-2 0 -54 -28q-4 0 -3 3t-3 3q-8 0 -69 -33q-94 -51 -154 -100q-25 -16 -68 -56q-8 -10 -22 -26q8 0 14 6l4 -4q2 -2 2 -4q-6 -4 -8 -12v-13q-2 -6 -22.5 -17t-26.5 -11q-4 0 -4 2h-4q-6 0 -47 -56q-94 -121 -94 -274q0 -96 59 -182 q16 -16 43 -47q92 -104 285 -166q160 -51 309 -52q254 0 436 113q227 142 227 416zM864 1458h-12l-137 -76q-96 -61 -117 -129q114 121 266 205zM637 1274q-27 -23 -35 -37h10q17 6 25 37zM489 1237q-2 10 -8 25q-8 8 -18 24q-4 43 -4 45q0 -6 -2 -16t-2 -12q-1 -52 34 -66z M1346 274q-25 43 -84 134q-8 2 -13 6q-4 14 -4 24q-2 -2 -162 -4q-35 -43 -67 -123q8 -8 22 -18q23 23 33 37q-10 10 -10 16l4 3q4 3 6 5q16 -10 14 -10q2 0 70 76q2 0 6 -4v-17l-45 -59q72 -35 191 -109q2 2 6 5q14 12 16 24l-162 135q8 10 13 11zM1270 201l-96 57 q-84 45 -95 45q-12 0 -35 -31q76 -33 113 -53q84 -47 74 -47q-4 0 39 29zM1196 147q-61 49 -164 84q53 -100 60 -100h24q4 0 25.5 -2t25.5 -2q-4 0 29 20zM1200 10q-6 25 -18 41q-51 -12 -131 -35q-14 -20 -17 -34zM1241 -96q-4 8 -20 59h-11q-94 -31 -163 -45 q-16 -2 -46 -8q-12 -20 -16 -43q37 0 62 -2l167 41q15 -6 27 -2zM1270 -178v8q-8 14 -19 39q-25 -16 -71 -27q-74 -16 -76 -16q-59 -20 -74 -21q-2 0 -2 2.5t-2 2.5q-4 0 -23.5 -5.5t-25.5 -7.5t-6 -8q27 -39 49 -39q29 0 197 47q12 5 53 25zM1497 1219q-2 0 -4 -2.5 t-6 -2.5q2 0 -19 13q-55 29 -77 67q-39 -39 -109 -94q-4 4 -4 10q0 -2 68 62q23 18 45 53l29 -42q19 -28 77 -50v-14zM1540 1063q0 -39 -49 -64q-41 -20 -84 -20q-45 0 -90 22q-55 29 -55 74q0 31 20 60q4 4 57 65q8 6 27 6q45 0 109.5 -48t64.5 -95zM825 1481l-20 -11v5 l18 10zM793 1462l-35 -18v4l33 18zM1016 1247q0 -16 -15 -16q-18 0 -49 63q-2 4 -8 11q-72 -94 -78 -95q-2 0 -16 7v18q2 0 4 2t6 2l6 -6q20 20 56 63q6 18 28 50q14 -41 15 -46q12 -27 32 -47q4 4 15 13q4 -9 4 -19zM1182 1073q0 -37 -62 -59q-49 -16 -94 -17h-49 q10 0 -53 11q-49 8 -68 22q-27 20 -27 41q0 53 68 92q76 43 80 49q10 -4 63 -12q8 -6 25 -16q117 -52 117 -111zM1282 823q-16 -16 -102 -16q-39 0 -59.5 20.5t-18.5 40.5v17q0 4 6 4t16.5 -34t49.5 -34q33 0 73 4q10 2 21 11q-10 29 -51 81t-41 62q0 6 8 6h4l57 -78 q37 -51 37 -84zM1397 764q-6 -6 -11 -6q-4 0 -7 3t-7 3q-14 0 -27.5 -24.5t-37.5 -24.5q-20 0 -33 22q-14 -20 -33 -28q-8 12 -29 36q-8 -10 -28 -24q-4 6 -13 22q-4 -8 -16 -26h-10q-4 8 -17 41q-10 -10 -34 -37h-13q-6 10 -18 41l-27 -27h-10q-6 33 0 66h10q0 -10 4 -31 q18 23 23 23q6 0 10 -7q6 -25 19 -43q16 16 32 50h11q4 -14 14 -43l20 26l23 -24q4 10 18 24q8 -2 17 -16q12 -23 18 -29q8 6 23 49h10q4 -12 8 -26q10 -23 23 -23q20 0 21 15.5t5 19.5q14 16 43 16q8 0 17 -4q0 -2 2 -6v-8zM1622 700q0 -20 -45 -49q-33 -20 -57.5 -29.5 t-75.5 -25.5q-113 -20 -154 -21h-153q-2 0 -15.5 3.5t-15.5 3.5q-27 4 -121 32l-35 15q-8 2 -22 8q-20 10 -37 22q-23 18 -31 35q-27 57 -26 72q0 4 4 12q4 84 4 109q12 0 16 -8q0 -27 -4 -91q-2 -37 8 -69q14 -41 80 -72q45 -23 137 -51q78 -12 133 -12q180 0 306 47 q49 18 84 59q2 6 4 17q6 4 12 4q4 -3 4 -11zM834 743h-5v15h5v-15zM1528 1059q0 55 -78 102q-43 25 -55 25q-4 0 -9.5 -4t-7.5 -4q-6 0 -8 2h-6q-16 0 -27 -19q-16 -27 -20 -31q-4 6 -4 15q-37 -29 -37 -70q0 -45 31 -45q-2 18 17 34.5t40 16.5q51 0 51 -49q0 -29 -22 -37 l32 -4q103 27 103 68zM1171 1073q0 23 -44 58.5t-62 39.5h-18q-51 14 -37 15q-4 0 -12.5 -2t-10.5 -2q8 -6 19 -21l-7 -4h-8q-31 20 -26 21q-23 0 -68 -33q-53 -37 -53 -70q0 -39 86 -55q47 -10 92 -10q-27 12 -27 34q0 20 35 35q29 14 53 15q16 0 35 -13.5t19 -31.5 q0 -10 -7 -17q8 0 24.5 13.5t16.5 27.5z" />
<glyph unicode="&#x22;" />
<glyph unicode="#" />
<glyph unicode="$" />
<glyph unicode="%" />
<glyph unicode="&#x26;" />
<glyph unicode="'" />
<glyph unicode="(" />
<glyph unicode=")" />
<glyph unicode="*" />
<glyph unicode="+" />
<glyph unicode="," />
<glyph unicode="-" />
<glyph unicode="." />
<glyph unicode="A" horiz-adv-x="1007" d="M1006 352q-6 -57 -93 -82q-59 -16 -118 -30q31 -104 104 -154q0 -20 -22 -51q-33 -45 -37 -51q-84 84 -183 249q-27 2 -59 3q-61 0 -184 -13q-141 -12 -189 -14q-27 -35 -63.5 -113t-63.5 -112q-55 37 -55 84q0 27 21.5 72.5t25.5 60.5q-72 29 -72 75q0 64 90 65 q10 0 21 -1q37 61 76 178q49 147 65 184q25 57 86 138q-8 10 33 10q63 0 111 -73l92 -142l55 -143q63 -137 121 -138q8 0 34.5 3t63.5 3q52 0 140 -8zM598 340q-25 86 -90.5 200.5t-112.5 149.5q-10 -25 -78 -164q-51 -104 -51 -129v-57h332z" />
<glyph unicode="B" horiz-adv-x="1126" d="M1122 362q0 -137 -176 -258q-150 -104 -248 -104q-18 0 -85.5 -8t-92.5 -8q-23 0 -168 28q-205 43 -227 47q-39 37 -39 84q0 14 4 42t4 42t-2 27q-14 27 -43 72q12 73 12 158q0 59 -6 124q-2 14 -24.5 46t-22.5 53q0 70 62 157q12 -6 47 -46t59 -40q18 0 132 25.5 t134 25.5q66 0 164 -34q127 -45 127 -115q0 -37 -141 -186l8 -9q94 10 197 11q325 -1 325 -134zM627 684q-123 41 -150 41q-29 0 -307 -57v-224q404 134 457 240zM1014 307l6 55l-35 25q-33 0 -106.5 10.5t-92.5 10.5q-113 0 -305 -37q-182 -35 -295 -76q16 -37 23 -127 q139 -96 303 -96q86 0 270 61q232 80 232 174z" />
<glyph unicode="C" horiz-adv-x="1085" d="M1075 143q0 -29 -39 -59q-125 -29 -323 -61q-188 -33 -228 -33q-156 0 -286 61q-182 84 -183 248q0 248 170 379q160 125 441 125q20 0 85.5 -9.5t94.5 -9.5q39 -41 39 -82l-17 -27q-8 -13 -34 -13q-23 0 -133.5 17t-133.5 17q-199 0 -302 -100t-103 -279 q0 -104 69.5 -171.5t167.5 -67.5q131 0 322 26q264 37 293 97h61q10 -19 39 -58z" />
<glyph unicode="D" horiz-adv-x="866" d="M852 383q0 -205 -121 -319.5t-311 -114.5q-98 0 -111.5 6t-58.5 49q-35 33 -60 33q-23 0 -22.5 -8.5t-22.5 -8.5q-88 0 -88 553l-28 29q-39 -20 -82 -20q-25 0 -45 8v80q421 54 421 57h-1q215 0 350 -63q180 -88 180 -281zM764 373q0 125 -111 190q-94 57 -241 58 q10 0 -113 -9q-34 -2 -61 -2q-45 0 -72 6v-215q-2 -43 61 -161q-4 -35 -28 -86q90 -88 129 -105q25 -12 100 -12q143 0 236 86q100 90 100 250z" />
<glyph unicode="E" horiz-adv-x="942" d="M938 680q-70 -14 -172 -14q-55 0 -178 6t-185 6q-164 0 -272 -33q-6 -6 -14 -12v-33q0 -66 16 -131q23 -90 64 -90h-1.5t193.5 2q131 3 229 3q49 0 89 -1q170 0 186 -8q-2 -29 -47 -60q-37 -25 -58 -24q-23 0 -124 9t-123 9q-164 0 -197 -4q-113 -10 -174 -61 q-4 -20 -4 -39q0 -68 57 -84q20 -6 115 -6q20 0 136 8t138 8q137 0 211 -39q0 -8 -10 -31.5t-10 -31.5q-51 1 -100 1q-170 0 -312 -12q-35 -2 -122 -23q-79 -20 -105 -20h-4h-164v66q68 25 82 51q4 8 4 58q0 20 -29 192q-31 199 -41 283q59 31 78 80q82 31 209 57 q117 23 154 22q313 0 460 -26q37 -6 37 -39q0 -19 -12 -39z" />
<glyph unicode="F" horiz-adv-x="800" d="M782 690q-27 -27 -76 -51.5t-81 -24.5q-18 0 -49 27t-48 27q-104 2 -181 1q-206 0 -218 -12q35 -168 35 -258l299 -25l299 -26l20 -82q-22 -9 -74 -8h-22q-227 6 -506 6q0 -43 -2 -133v-133q-12 10 -41 6q-47 -6 -39 -6q-23 57 -22 195q0 18 2 55v51q0 158 -45 158 q-25 0 -31 -8.5t-12 -8.5v58l19 53q19 53 20 98q0 23 -4 45v41q72 35 213 35q55 0 172.5 -7t171.5 -7q82 0 137 12q23 -8 63 -33v-45z" />
<glyph unicode="G" horiz-adv-x="1339" d="M1311 -201q0 -41 -21 -59q-10 0 -40.5 -9.5t-39.5 -9.5q-43 53 -53 170q-2 23 -2 203q-541 -92 -655 -92q-137 0 -279 49q-199 66 -198 191q0 119 94 245q111 152 268 152q49 0 80 -59q0 -10 -11.5 -32t-11.5 -32q-35 12 -67 12q-104 0 -180 -104q-66 -90 -66 -174 q0 -158 387 -158q23 0 195 17.5t195.5 17.5t103.5 22.5t127 43.5v110q12 0 -219 0q-18 0 -97.5 -35t-101.5 -35h-109l-41 43q49 76 168 97q111 8 221 18q135 14 203 72q68 -68 125 -182q2 -6 2 -15q0 -12 -14 -58t-14 -73q0 -59 25.5 -190.5t25.5 -145.5z" />
<glyph unicode="H" horiz-adv-x="813" d="M811 246q-51 -39 -55 -119q-4 -115 -19 -152h-65q-16 178 -39 221.5t-96 43.5h-50q-39 -2 -65 -2q-6 0 -40 2t-56 2q-158 0 -158 -70q0 -27 25 -66l-21 -96h-82q-6 18 -6 49q0 12 2 35v35q0 94 -84 94q4 45 61 82q8 88 9 318q12 6 24 6q41 0 60 -127q23 -147 49 -178h430 q0 37 -20.5 153.5t-20.5 165.5q0 86 49 88q6 4 12 4q31 0 41 -98q20 -186 25 -207q27 -129 90 -184z" />
<glyph unicode="I" horiz-adv-x="329" d="M240 -8h-66q-10 10 -35 39q-57 465 -57 596q0 27 24 45l37 24q66 -61 74 -149q23 -267 23 -355v-14v-186z" />
<glyph unicode="J" horiz-adv-x="841" d="M831 123q-59 -57 -294 -115q-197 -47 -263 -47q-6 0 -58 -3t-85 -3q-47 2 -74 8q0 39 -20 60l22 39q12 22 39 22q18 0 35 -9t45 -9q199 0 531 116q-10 82 -60 244q-47 154 -47 170q0 18 10.5 72.5t10.5 83.5h82q44 -207 126 -629z" />
<glyph unicode="K" horiz-adv-x="1085" d="M1069 125q-74 -43 -211 -43q-123 0 -657 88q-29 -55 -58 -229q0 16 -41 30q-16 6 -45 6v734l52 41q59 -59 61 -177q-2 -98 -2 -198q-12 -12 29 -12q27 0 233 98q342 164 348 166l131 -21v-65q-125 -4 -319 -86q-180 -76 -332 -181q66 -29 283 -59q209 -31 317 -31 q121 0 170 19q8 -8 20.5 -40t20.5 -40z" />
<glyph unicode="L" horiz-adv-x="1026" d="M997 29q-37 -6 -88 -6q-70 0 -175 10t-113 10q-18 0 -150 -16q-150 -20 -221 -27q-63 -4 -121 -63q-82 25 -82 167q0 33 6 105q5 49 5 75q0 9 -1 15q-2 41 -23.5 147.5t-21.5 126.5q0 61 43 105q82 -74 92 -264q2 -152 3 -303h831q0 -8 8 -41t8 -41z" />
<glyph unicode="M" horiz-adv-x="1138" d="M1118 45q0 -37 -14 -72q-18 -43 -47 -43q-27 0 -40 10.5t-20 10.5q-2 14 -22 278q-14 156 -62 248q-98 -100 -182 -221q-111 -162 -125 -270h-51q-45 70 -147 194q-111 111 -234 209q-10 -10 -12 -22q-2 -20 -4 -23q-6 -117 -31 -358q-47 0 -84 39v555q12 18 43 57 l459 -459q84 84 203 242q182 246 202 270q51 -45 80 -182l29 -197q6 -41 35 -147q24 -96 24 -119z" />
<glyph unicode="N" horiz-adv-x="890" d="M846 170q-2 -16 -29 -16q-39 0 -51 24q-96 340 -94 424v146h65q33 -106 62 -281q22 -150 47 -297zM864 -25h-59q-23 -2 -270 213q-309 266 -398 334v-26q0 -67 6 -246q2 -61 3 -113q0 -86 -7 -143h-65q-53 391 -54 500q0 86 11 168q119 -39 266 -146q88 -63 275.5 -223 t291.5 -236v-82z" />
<glyph unicode="O" horiz-adv-x="1032" d="M1008 178q0 -123 -181 -178q-106 -33 -209 -33h-133q-150 0 -286 62q-180 82 -181 229q0 98 107 246q121 170 256 170q76 0 223 -72q162 -80 270 -182q134 -125 134 -242zM920 205q0 104 -185 239q-167 121 -249 121h-3h-55q0 -78 -33 -104q-18 0 -55 17.5t-57 17.5 q-68 0 -117 -93q-41 -74 -41 -127q0 -86 75.5 -153.5t182.5 -67.5h164q373 0 373 150z" />
<glyph unicode="P" horiz-adv-x="862" d="M840 479q0 -186 -164 -274q-117 -61 -279 -62q-55 0 -198 35q-27 -33 -27 -90q0 -29 9 -91.5t9 -90.5q0 -16 15.5 -66.5t13.5 -72.5v-115h-100q-10 178 -62 549q-47 350 -47 356q0 76 21 115q117 18 358 18q88 0 221 -26q164 -31 193 -72q37 -54 37 -113zM733 512 q-6 4 -76 47q-250 43 -409 43q-76 0 -115 -22v-125q0 -35 57 -205q29 0 96.5 -9.5t84.5 -9.5q143 0 241 54q122 68 122 205q0 11 -1 22z" />
<glyph unicode="Q" horiz-adv-x="972" d="M940 -123q-23 -23 -70 -22q-23 0 -128 79.5t-128 79.5q-20 0 -65 -9t-68 -9q-147 0 -278 57q-180 80 -180 234q0 57 59 177t104 142q63 33 174 66q102 31 140 30q166 0 282 -145q106 -131 107 -278q0 -49 -38 -128t-69 -96q47 -94 97 -94l41 14q0 -4 10 -35.5t10 -62.5z M817 322q0 33 -31.5 100t-59.5 101t-91 59q-47 16 -96 30q-6 -31 -29 -63q-29 -41 -55 -41q-23 0 -45.5 17.5t-42.5 17.5q-31 0 -78 -21.5t-70 -40.5q-90 -80 -90 -194q0 -63 78 -133q76 -68 141 -68h4h199q-14 23 -74 80q-49 47 -49 67q0 27 8 43.5t8 22.5q49 0 64 14 l194 -194q16 16 41 24q27 37 50.5 94.5t23.5 84.5z" />
<glyph unicode="R" horiz-adv-x="1073" d="M1040 106q-92 2 -301 19q-193 14 -299 14q-133 0 -247 -16q-8 -33 -17.5 -115t-17.5 -114q-10 -2 -39 -21q-29 0 -60 41q-2 21 -1 60q0 58 3 153q1 33 1 63q0 89 -9 148l-20 117q-14 72 -15 120q51 66 213 76q135 0 273 2l47 9q35 6 59 6q20 0 113.5 -30t105.5 -46v-100 q-68 -47 -192 -117q-141 -78 -195 -113q246 -37 541 -43q14 4 40 -37t26 -65q-1 -11 -9 -11zM707 537l-398 24q-55 -10 -166 -39q12 -95 12.5 -160t-12.5 -100h80z" />
<glyph unicode="S" horiz-adv-x="1091" d="M1077 219q0 -135 -198 -203q-129 -43 -254 -43q10 0 -93 2q-44 1 -92.5 1t-101.5 -1q2 16 -37 97q12 14 27.5 28.5t42.5 14.5q23 0 168 -9.5t168 -9.5q43 0 143 45q94 43 121 70q-23 23 -47 39q-352 57 -500 57q-23 0 -31 -8t-31 -8q-88 0 -192 18q-152 29 -152 78 q0 82 207 199q115 63 240 114q18 25 53 66h184q10 -20 39 -61l-57 -56q-182 -4 -506 -209q23 -23 78 -42t88 -19q322 0 426 -6q121 -8 123 -8q84 -8 127 -29q57 -27 57 -117z" />
<glyph unicode="T" horiz-adv-x="1079" d="M1057 682q-281 -55 -289 -55q-18 0 -55 17.5t-60 17.5q-74 0 -137 -48q29 -240 29 -536q0 -141 -15 -141q-27 0 -45 2t-24 2q4 16 -14.5 55t-18.5 55q0 12 5 85t5 128q0 203 -63 314q-2 12 -2 51q8 0 -353 0q-2 16 16.5 46t41.5 32q311 23 940 77l39 -41v-61z" />
<glyph unicode="U" horiz-adv-x="878" d="M852 596q0 -301 -35 -410q-68 -209 -291 -209q-70 0 -169 60.5t-179 152.5q-25 43 -74 111q-2 2 -61 35q-39 21 -39 46q0 30 37 59q33 26 39 118q8 0 41 -9t41 -9q-4 -23 -4 -45q0 -139 130 -284.5t247 -145.5q225 0 225 288q0 72 -19 219q-12 91 -12 136q0 17 2 26h64 q57 -57 57 -139z" />
<glyph unicode="V" horiz-adv-x="768" d="M743 596q0 -12 -34.5 -24.5t-49.5 -49.5q-98 -236 -98 -438q0 -39 6 -72q-29 -29 -41 -28q-6 0 -12 4q-25 23 -238 256q-197 217 -237 243q-4 2 -4 9q0 10 11 37.5t11 35.5h64q217 -215 330 -352q10 55 65 211q45 123 45 193q0 37 -10 69q58 58 103 58h12q9 2 18 1 q31 0 59 -22q6 -44 6 -76.5t-6 -54.5z" />
<glyph unicode="W" horiz-adv-x="1095" d="M1090 582q0 -33 -33 -76q-8 -129 -19 -256q-31 -242 -143 -242q-78 0 -236 305q-37 59 -108 189q-55 -135 -68 -264l-12 -168q-10 -72 -63 -115q-80 113 -396 606v60l45 41q63 -61 162 -230q121 -203 154 -248q29 86 69 248q45 184 68 262h63q156 -309 318 -563 q25 0 33 12q20 94 63 551h64q39 -77 39 -112z" />
<glyph unicode="X" horiz-adv-x="755" d="M754 655q-18 -20 -181 -133q-131 -94 -172 -166q2 -2 318 -278q2 -6 2 -15q0 -25 -16.5 -59.5t-28.5 -26.5q-53 31 -154 121l-182 160q-96 -115 -315 -332q-14 -6 -37 -8q-25 0 -27 8l281 377q-45 76 -211 207v61l20 21q4 2 33 2q23 0 86 -59l117 -117q121 106 385 317 q6 6 14 6q23 0 48.5 -28.5t25.5 -46.5q0 -9 -6 -11z" />
<glyph unicode="Y" horiz-adv-x="1253" d="M1237 717q-16 2 -35 2q-104 0 -233 -60.5t-226 -150.5v-133q16 -8 50 -8q41 2 49 0q29 -4 26 -29q4 -37 -31 -56l-71 -40v-16q0 -34 6 -95q10 -84 10 -123q0 -37 -6 -69q-27 -4 -46.5 -4.5t-33.5 4.5q-12 33 -30 174q-14 121 -50 182q-47 80 -254 147q-35 12 -202 35 q-137 18 -172 49v62q6 0 16 10t35 10q104 0 272 -53l281 -88q80 127 139 168q84 59 236 125q141 59 178 59h74h1q27 0 27 -78q0 -26 -10 -24z" />
<glyph unicode="Z" horiz-adv-x="1243" d="M1223 45q0 -43 -23 -61q-264 -39 -498 -39q-20 0 -64 13t-56 15q-202 13 -349 13q-107 0 -186 -6l-22 22v82l440 268q264 162 424 307q-41 43 -115 43q-115 0 -338 -71l-248 -86l-41 41v59q12 12 41 33q131 39 379 86q229 45 269 45q66 0 121 -32t55 -83q0 -92 -176 -209 l-250 -157q-39 -31 -151.5 -95.5t-182.5 -117.5q162 -23 442 -45q240 -20 291 -21q23 0 32 26.5t30 26.5q96 0 176 -57z" />
<glyph unicode="a" horiz-adv-x="1007" d="M1006 352q-6 -57 -93 -82q-59 -16 -118 -30q31 -104 104 -154q0 -20 -22 -51q-33 -45 -37 -51q-84 84 -183 249q-27 2 -59 3q-61 0 -184 -13q-141 -12 -189 -14q-27 -35 -63.5 -113t-63.5 -112q-55 37 -55 84q0 27 21.5 72.5t25.5 60.5q-72 29 -72 75q0 64 90 65 q10 0 21 -1q37 61 76 178q49 147 65 184q25 57 86 138q-8 10 33 10q63 0 111 -73l92 -142l55 -143q63 -137 121 -138q8 0 34.5 3t63.5 3q52 0 140 -8zM598 340q-25 86 -90.5 200.5t-112.5 149.5q-10 -25 -78 -164q-51 -104 -51 -129v-57h332z" />
<glyph unicode="b" horiz-adv-x="1126" d="M1122 362q0 -137 -176 -258q-150 -104 -248 -104q-18 0 -85.5 -8t-92.5 -8q-23 0 -168 28q-205 43 -227 47q-39 37 -39 84q0 14 4 42t4 42t-2 27q-14 27 -43 72q12 73 12 158q0 59 -6 124q-2 14 -24.5 46t-22.5 53q0 70 62 157q12 -6 47 -46t59 -40q18 0 132 25.5 t134 25.5q66 0 164 -34q127 -45 127 -115q0 -37 -141 -186l8 -9q94 10 197 11q325 -1 325 -134zM627 684q-123 41 -150 41q-29 0 -307 -57v-224q404 134 457 240zM1014 307l6 55l-35 25q-33 0 -106.5 10.5t-92.5 10.5q-113 0 -305 -37q-182 -35 -295 -76q16 -37 23 -127 q139 -96 303 -96q86 0 270 61q232 80 232 174z" />
<glyph unicode="c" horiz-adv-x="1085" d="M1075 143q0 -29 -39 -59q-125 -29 -323 -61q-188 -33 -228 -33q-156 0 -286 61q-182 84 -183 248q0 248 170 379q160 125 441 125q20 0 85.5 -9.5t94.5 -9.5q39 -41 39 -82l-17 -27q-8 -13 -34 -13q-23 0 -133.5 17t-133.5 17q-199 0 -302 -100t-103 -279 q0 -104 69.5 -171.5t167.5 -67.5q131 0 322 26q264 37 293 97h61q10 -19 39 -58z" />
<glyph unicode="d" horiz-adv-x="866" d="M852 383q0 -205 -121 -319.5t-311 -114.5q-98 0 -111.5 6t-58.5 49q-35 33 -60 33q-23 0 -22.5 -8.5t-22.5 -8.5q-88 0 -88 553l-28 29q-39 -20 -82 -20q-25 0 -45 8v80q421 54 421 57h-1q215 0 350 -63q180 -88 180 -281zM764 373q0 125 -111 190q-94 57 -241 58 q10 0 -113 -9q-34 -2 -61 -2q-45 0 -72 6v-215q-2 -43 61 -161q-4 -35 -28 -86q90 -88 129 -105q25 -12 100 -12q143 0 236 86q100 90 100 250z" />
<glyph unicode="e" horiz-adv-x="942" d="M938 680q-70 -14 -172 -14q-55 0 -178 6t-185 6q-164 0 -272 -33q-6 -6 -14 -12v-33q0 -66 16 -131q23 -90 64 -90h-1.5t193.5 2q131 3 229 3q49 0 89 -1q170 0 186 -8q-2 -29 -47 -60q-37 -25 -58 -24q-23 0 -124 9t-123 9q-164 0 -197 -4q-113 -10 -174 -61 q-4 -20 -4 -39q0 -68 57 -84q20 -6 115 -6q20 0 136 8t138 8q137 0 211 -39q0 -8 -10 -31.5t-10 -31.5q-51 1 -100 1q-170 0 -312 -12q-35 -2 -122 -23q-79 -20 -105 -20h-4h-164v66q68 25 82 51q4 8 4 58q0 20 -29 192q-31 199 -41 283q59 31 78 80q82 31 209 57 q117 23 154 22q313 0 460 -26q37 -6 37 -39q0 -19 -12 -39z" />
<glyph unicode="f" horiz-adv-x="800" d="M782 690q-27 -27 -76 -51.5t-81 -24.5q-18 0 -49 27t-48 27q-104 2 -181 1q-206 0 -218 -12q35 -168 35 -258l299 -25l299 -26l20 -82q-22 -9 -74 -8h-22q-227 6 -506 6q0 -43 -2 -133v-133q-12 10 -41 6q-47 -6 -39 -6q-23 57 -22 195q0 18 2 55v51q0 158 -45 158 q-25 0 -31 -8.5t-12 -8.5v58l19 53q19 53 20 98q0 23 -4 45v41q72 35 213 35q55 0 172.5 -7t171.5 -7q82 0 137 12q23 -8 63 -33v-45z" />
<glyph unicode="g" horiz-adv-x="1339" d="M1311 -201q0 -41 -21 -59q-10 0 -40.5 -9.5t-39.5 -9.5q-43 53 -53 170q-2 23 -2 203q-541 -92 -655 -92q-137 0 -279 49q-199 66 -198 191q0 119 94 245q111 152 268 152q49 0 80 -59q0 -10 -11.5 -32t-11.5 -32q-35 12 -67 12q-104 0 -180 -104q-66 -90 -66 -174 q0 -158 387 -158q23 0 195 17.5t195.5 17.5t103.5 22.5t127 43.5v110q12 0 -219 0q-18 0 -97.5 -35t-101.5 -35h-109l-41 43q49 76 168 97q111 8 221 18q135 14 203 72q68 -68 125 -182q2 -6 2 -15q0 -12 -14 -58t-14 -73q0 -59 25.5 -190.5t25.5 -145.5z" />
<glyph unicode="h" horiz-adv-x="813" d="M811 246q-51 -39 -55 -119q-4 -115 -19 -152h-65q-16 178 -39 221.5t-96 43.5h-50q-39 -2 -65 -2q-6 0 -40 2t-56 2q-158 0 -158 -70q0 -27 25 -66l-21 -96h-82q-6 18 -6 49q0 12 2 35v35q0 94 -84 94q4 45 61 82q8 88 9 318q12 6 24 6q41 0 60 -127q23 -147 49 -178h430 q0 37 -20.5 153.5t-20.5 165.5q0 86 49 88q6 4 12 4q31 0 41 -98q20 -186 25 -207q27 -129 90 -184z" />
<glyph unicode="i" horiz-adv-x="329" d="M240 -8h-66q-10 10 -35 39q-57 465 -57 596q0 27 24 45l37 24q66 -61 74 -149q23 -267 23 -355v-14v-186z" />
<glyph unicode="j" horiz-adv-x="841" d="M831 123q-59 -57 -294 -115q-197 -47 -263 -47q-6 0 -58 -3t-85 -3q-47 2 -74 8q0 39 -20 60l22 39q12 22 39 22q18 0 35 -9t45 -9q199 0 531 116q-10 82 -60 244q-47 154 -47 170q0 18 10.5 72.5t10.5 83.5h82q44 -207 126 -629z" />
<glyph unicode="k" horiz-adv-x="1085" d="M1069 125q-74 -43 -211 -43q-123 0 -657 88q-29 -55 -58 -229q0 16 -41 30q-16 6 -45 6v734l52 41q59 -59 61 -177q-2 -98 -2 -198q-12 -12 29 -12q27 0 233 98q342 164 348 166l131 -21v-65q-125 -4 -319 -86q-180 -76 -332 -181q66 -29 283 -59q209 -31 317 -31 q121 0 170 19q8 -8 20.5 -40t20.5 -40z" />
<glyph unicode="l" horiz-adv-x="1026" d="M997 29q-37 -6 -88 -6q-70 0 -175 10t-113 10q-18 0 -150 -16q-150 -20 -221 -27q-63 -4 -121 -63q-82 25 -82 167q0 33 6 105q5 49 5 75q0 9 -1 15q-2 41 -23.5 147.5t-21.5 126.5q0 61 43 105q82 -74 92 -264q2 -152 3 -303h831q0 -8 8 -41t8 -41z" />
<glyph unicode="m" horiz-adv-x="1138" d="M1118 45q0 -37 -14 -72q-18 -43 -47 -43q-27 0 -40 10.5t-20 10.5q-2 14 -22 278q-14 156 -62 248q-98 -100 -182 -221q-111 -162 -125 -270h-51q-45 70 -147 194q-111 111 -234 209q-10 -10 -12 -22q-2 -20 -4 -23q-6 -117 -31 -358q-47 0 -84 39v555q12 18 43 57 l459 -459q84 84 203 242q182 246 202 270q51 -45 80 -182l29 -197q6 -41 35 -147q24 -96 24 -119z" />
<glyph unicode="n" horiz-adv-x="890" d="M846 170q-2 -16 -29 -16q-39 0 -51 24q-96 340 -94 424v146h65q33 -106 62 -281q22 -150 47 -297zM864 -25h-59q-23 -2 -270 213q-309 266 -398 334v-26q0 -67 6 -246q2 -61 3 -113q0 -86 -7 -143h-65q-53 391 -54 500q0 86 11 168q119 -39 266 -146q88 -63 275.5 -223 t291.5 -236v-82z" />
<glyph unicode="o" horiz-adv-x="1032" d="M1008 178q0 -123 -181 -178q-106 -33 -209 -33h-133q-150 0 -286 62q-180 82 -181 229q0 98 107 246q121 170 256 170q76 0 223 -72q162 -80 270 -182q134 -125 134 -242zM920 205q0 104 -185 239q-167 121 -249 121h-3h-55q0 -78 -33 -104q-18 0 -55 17.5t-57 17.5 q-68 0 -117 -93q-41 -74 -41 -127q0 -86 75.5 -153.5t182.5 -67.5h164q373 0 373 150z" />
<glyph unicode="p" horiz-adv-x="862" d="M840 479q0 -186 -164 -274q-117 -61 -279 -62q-55 0 -198 35q-27 -33 -27 -90q0 -29 9 -91.5t9 -90.5q0 -16 15.5 -66.5t13.5 -72.5v-115h-100q-10 178 -62 549q-47 350 -47 356q0 76 21 115q117 18 358 18q88 0 221 -26q164 -31 193 -72q37 -54 37 -113zM733 512 q-6 4 -76 47q-250 43 -409 43q-76 0 -115 -22v-125q0 -35 57 -205q29 0 96.5 -9.5t84.5 -9.5q143 0 241 54q122 68 122 205q0 11 -1 22z" />
<glyph unicode="q" horiz-adv-x="972" d="M940 -123q-23 -23 -70 -22q-23 0 -128 79.5t-128 79.5q-20 0 -65 -9t-68 -9q-147 0 -278 57q-180 80 -180 234q0 57 59 177t104 142q63 33 174 66q102 31 140 30q166 0 282 -145q106 -131 107 -278q0 -49 -38 -128t-69 -96q47 -94 97 -94l41 14q0 -4 10 -35.5t10 -62.5z M817 322q0 33 -31.5 100t-59.5 101t-91 59q-47 16 -96 30q-6 -31 -29 -63q-29 -41 -55 -41q-23 0 -45.5 17.5t-42.5 17.5q-31 0 -78 -21.5t-70 -40.5q-90 -80 -90 -194q0 -63 78 -133q76 -68 141 -68h4h199q-14 23 -74 80q-49 47 -49 67q0 27 8 43.5t8 22.5q49 0 64 14 l194 -194q16 16 41 24q27 37 50.5 94.5t23.5 84.5z" />
<glyph unicode="r" horiz-adv-x="1073" d="M1040 106q-92 2 -301 19q-193 14 -299 14q-133 0 -247 -16q-8 -33 -17.5 -115t-17.5 -114q-10 -2 -39 -21q-29 0 -60 41q-2 21 -1 60q0 58 3 153q1 33 1 63q0 89 -9 148l-20 117q-14 72 -15 120q51 66 213 76q135 0 273 2l47 9q35 6 59 6q20 0 113.5 -30t105.5 -46v-100 q-68 -47 -192 -117q-141 -78 -195 -113q246 -37 541 -43q14 4 40 -37t26 -65q-1 -11 -9 -11zM707 537l-398 24q-55 -10 -166 -39q12 -95 12.5 -160t-12.5 -100h80z" />
<glyph unicode="s" horiz-adv-x="1091" d="M1077 219q0 -135 -198 -203q-129 -43 -254 -43q10 0 -93 2q-44 1 -92.5 1t-101.5 -1q2 16 -37 97q12 14 27.5 28.5t42.5 14.5q23 0 168 -9.5t168 -9.5q43 0 143 45q94 43 121 70q-23 23 -47 39q-352 57 -500 57q-23 0 -31 -8t-31 -8q-88 0 -192 18q-152 29 -152 78 q0 82 207 199q115 63 240 114q18 25 53 66h184q10 -20 39 -61l-57 -56q-182 -4 -506 -209q23 -23 78 -42t88 -19q322 0 426 -6q121 -8 123 -8q84 -8 127 -29q57 -27 57 -117z" />
<glyph unicode="t" horiz-adv-x="1079" d="M1057 682q-281 -55 -289 -55q-18 0 -55 17.5t-60 17.5q-74 0 -137 -48q29 -240 29 -536q0 -141 -15 -141q-27 0 -45 2t-24 2q4 16 -14.5 55t-18.5 55q0 12 5 85t5 128q0 203 -63 314q-2 12 -2 51q8 0 -353 0q-2 16 16.5 46t41.5 32q311 23 940 77l39 -41v-61z" />
<glyph unicode="u" horiz-adv-x="878" d="M852 596q0 -301 -35 -410q-68 -209 -291 -209q-70 0 -169 60.5t-179 152.5q-25 43 -74 111q-2 2 -61 35q-39 21 -39 46q0 32 37 60q33 25 39 117q8 0 41 -9t41 -9q-4 -23 -4 -45q0 -139 130 -284.5t247 -145.5q225 0 225 288q0 72 -19 219q-12 91 -12 136q0 17 2 26h64 q57 -57 57 -139z" />
<glyph unicode="v" horiz-adv-x="768" d="M743 596q0 -12 -34.5 -24.5t-49.5 -49.5q-98 -236 -98 -438q0 -39 6 -72q-29 -29 -41 -28q-6 0 -12 4q-25 23 -238 256q-197 217 -237 243q-4 2 -4 9q0 10 11 37.5t11 35.5h64q217 -215 330 -352q10 55 65 211q45 123 45 193q0 37 -10 69q58 58 103 58h12q9 2 18 1 q31 0 59 -22q6 -44 6 -76.5t-6 -54.5z" />
<glyph unicode="w" horiz-adv-x="1095" d="M1090 582q0 -33 -33 -76q-8 -129 -19 -256q-31 -242 -143 -242q-78 0 -236 305q-37 59 -108 189q-55 -135 -68 -264l-12 -168q-10 -72 -63 -115q-80 113 -396 606v60l45 41q63 -61 162 -230q121 -203 154 -248q29 86 69 248q45 184 68 262h63q156 -309 318 -563 q25 0 33 12q20 94 63 551h64q39 -77 39 -112z" />
<glyph unicode="x" horiz-adv-x="755" d="M754 655q-18 -20 -181 -133q-131 -94 -172 -166q2 -2 318 -278q2 -6 2 -15q0 -25 -16.5 -59.5t-28.5 -26.5q-53 31 -154 121l-182 160q-96 -115 -315 -332q-14 -6 -37 -8q-25 0 -27 8l281 377q-45 76 -211 207v61l20 21q4 2 33 2q23 0 86 -59l117 -117q121 106 385 317 q6 6 14 6q23 0 48.5 -28.5t25.5 -46.5q0 -9 -6 -11z" />
<glyph unicode="y" horiz-adv-x="1253" d="M1237 717q-16 2 -35 2q-104 0 -233 -60.5t-226 -150.5v-133q16 -8 50 -8q41 2 49 0q29 -4 26 -29q4 -37 -31 -56l-71 -40v-16q0 -34 6 -95q10 -84 10 -123q0 -37 -6 -69q-27 -4 -46.5 -4.5t-33.5 4.5q-12 33 -30 174q-14 121 -50 182q-47 80 -254 147q-35 12 -202 35 q-137 18 -172 49v62q6 0 16 10t35 10q104 0 272 -53l281 -88q80 127 139 168q84 59 236 125q141 59 178 59h74h1q27 0 27 -78q0 -26 -10 -24z" />
<glyph unicode="z" horiz-adv-x="1243" d="M1223 45q0 -43 -23 -61q-264 -39 -498 -39q-20 0 -64 13t-56 15q-202 13 -349 13q-107 0 -186 -6l-22 22v82l440 268q264 162 424 307q-41 43 -115 43q-115 0 -338 -71l-248 -86l-41 41v59q12 12 41 33q131 39 379 86q229 45 269 45q66 0 121 -32t55 -83q0 -92 -176 -209 l-250 -157q-39 -31 -151.5 -95.5t-182.5 -117.5q162 -23 442 -45q240 -20 291 -21q23 0 32 26.5t30 26.5q96 0 176 -57z" />
<glyph unicode="&#xaa;" horiz-adv-x="1007" d="M1006 352q-6 -57 -93 -82q-59 -16 -118 -30q31 -104 104 -154q0 -20 -22 -51q-33 -45 -37 -51q-84 84 -183 249q-27 2 -59 3q-61 0 -184 -13q-141 -12 -189 -14q-27 -35 -63.5 -113t-63.5 -112q-55 37 -55 84q0 27 21.5 72.5t25.5 60.5q-72 29 -72 75q0 64 90 65 q10 0 21 -1q37 61 76 178q49 147 65 184q25 57 86 138q-8 10 33 10q63 0 111 -73l92 -142l55 -143q63 -137 121 -138q8 0 34.5 3t63.5 3q52 0 140 -8zM598 340q-25 86 -90.5 200.5t-112.5 149.5q-10 -25 -78 -164q-51 -104 -51 -129v-57h332z" />
<glyph unicode="&#xad;" />
<glyph unicode="&#xba;" horiz-adv-x="1032" d="M1008 178q0 -123 -181 -178q-106 -33 -209 -33h-133q-150 0 -286 62q-180 82 -181 229q0 98 107 246q121 170 256 170q76 0 223 -72q162 -80 270 -182q134 -125 134 -242zM920 205q0 104 -185 239q-167 121 -249 121h-3h-55q0 -78 -33 -104q-18 0 -55 17.5t-57 17.5 q-68 0 -117 -93q-41 -74 -41 -127q0 -86 75.5 -153.5t182.5 -67.5h164q373 0 373 150z" />
<glyph unicode="&#x152;" horiz-adv-x="1974" d="M1970 680q-70 -14 -172 -14q-55 0 -178 6t-185 6q-164 0 -272 -33q-6 -6 -14 -12v-33q0 -66 16 -131q23 -90 64 -90h-1.5t193.5 2q131 3 229 3q49 0 89 -1q170 0 186 -8q-2 -29 -47 -60q-37 -25 -58 -24q-23 0 -124 9t-123 9q-164 0 -197 -4q-113 -10 -174 -61 q-4 -20 -4 -39q0 -68 57 -84q20 -6 115 -6q20 0 136 8t138 8q137 0 211 -39q0 -8 -10 -31.5t-10 -31.5q-51 1 -100 1q-170 0 -312 -12q-35 -2 -122 -23q-79 -20 -105 -20h-4h-164v66q68 25 82 51q4 8 4 58q0 20 -29 192q-31 199 -41 283q59 31 78 80q82 31 209 57 q117 23 154 22q313 0 460 -26q37 -6 37 -39q0 -19 -12 -39zM1008 178q0 -123 -181 -178q-106 -33 -209 -33h-133q-150 0 -286 62q-180 82 -181 229q0 98 107 246q121 170 256 170q76 0 223 -72q162 -80 270 -182q134 -125 134 -242zM920 205q0 104 -185 239 q-167 121 -249 121h-3h-55q0 -78 -33 -104q-18 0 -55 17.5t-57 17.5q-68 0 -117 -93q-41 -74 -41 -127q0 -86 75.5 -153.5t182.5 -67.5h164q373 0 373 150z" />
<glyph unicode="&#x153;" horiz-adv-x="1974" d="M1970 680q-70 -14 -172 -14q-55 0 -178 6t-185 6q-164 0 -272 -33q-6 -6 -14 -12v-33q0 -66 16 -131q23 -90 64 -90h-1.5t193.5 2q131 3 229 3q49 0 89 -1q170 0 186 -8q-2 -29 -47 -60q-37 -25 -58 -24q-23 0 -124 9t-123 9q-164 0 -197 -4q-113 -10 -174 -61 q-4 -20 -4 -39q0 -68 57 -84q20 -6 115 -6q20 0 136 8t138 8q137 0 211 -39q0 -8 -10 -31.5t-10 -31.5q-51 1 -100 1q-170 0 -312 -12q-35 -2 -122 -23q-79 -20 -105 -20h-4h-164v66q68 25 82 51q4 8 4 58q0 20 -29 192q-31 199 -41 283q59 31 78 80q82 31 209 57 q117 23 154 22q313 0 460 -26q37 -6 37 -39q0 -19 -12 -39zM1008 178q0 -123 -181 -178q-106 -33 -209 -33h-133q-150 0 -286 62q-180 82 -181 229q0 98 107 246q121 170 256 170q76 0 223 -72q162 -80 270 -182q134 -125 134 -242zM920 205q0 104 -185 239 q-167 121 -249 121h-3h-55q0 -78 -33 -104q-18 0 -55 17.5t-57 17.5q-68 0 -117 -93q-41 -74 -41 -127q0 -86 75.5 -153.5t182.5 -67.5h164q373 0 373 150z" />
<glyph unicode="&#x2000;" horiz-adv-x="819" />
<glyph unicode="&#x2001;" horiz-adv-x="1638" />
<glyph unicode="&#x2002;" horiz-adv-x="819" />
<glyph unicode="&#x2003;" horiz-adv-x="1638" />
<glyph unicode="&#x2004;" horiz-adv-x="544" />
<glyph unicode="&#x2005;" horiz-adv-x="409" />
<glyph unicode="&#x2006;" horiz-adv-x="272" />
<glyph unicode="&#x2007;" horiz-adv-x="272" />
<glyph unicode="&#x2008;" horiz-adv-x="204" />
<glyph unicode="&#x2009;" horiz-adv-x="327" />
<glyph unicode="&#x200a;" horiz-adv-x="90" />
<glyph unicode="&#x2010;" />
<glyph unicode="&#x2011;" />
<glyph unicode="&#x2012;" />
<glyph unicode="&#x2013;" horiz-adv-x="1024" d="M205 512v205h614v-205h-614z" />
<glyph unicode="&#x2014;" d="M205 512v205h1638v-205h-1638z" />
<glyph unicode="&#x202f;" horiz-adv-x="327" />
<glyph unicode="&#x205f;" horiz-adv-x="409" />
<glyph unicode="&#x2122;" horiz-adv-x="2217" d="M2197 45q0 -37 -14 -72q-18 -43 -47 -43q-27 0 -40 10.5t-20 10.5q-2 14 -22 278q-14 156 -62 248q-98 -100 -182 -221q-111 -162 -125 -270h-51q-45 70 -147 194q-111 111 -234 209q-10 -10 -12 -22q-2 -20 -4 -23q-6 -117 -31 -358q-47 0 -84 39v555q12 18 43 57 l459 -459q84 84 203 242q182 246 202 270q51 -45 80 -182l29 -197q6 -41 35 -147q24 -96 24 -119zM1057 682q-281 -55 -289 -55q-18 0 -55 17.5t-60 17.5q-74 0 -137 -48q29 -240 29 -536q0 -141 -15 -141q-27 0 -45 2t-24 2q4 16 -14.5 55t-18.5 55q0 12 5 85t5 128 q0 203 -63 314q-2 12 -2 51q8 0 -353 0q-2 16 16.5 46t41.5 32q311 23 940 77l39 -41v-61z" />
<glyph unicode="&#xe000;" horiz-adv-x="740" d="M0 740h740v-740h-740v740z" />
<glyph unicode="&#xfb01;" horiz-adv-x="1130" d="M1041 -8h-66q-10 10 -35 39q-57 465 -57 596q0 27 24 45l37 24q66 -61 74 -149q23 -267 23 -355v-14v-186zM782 690q-27 -27 -76 -51.5t-81 -24.5q-18 0 -49 27t-48 27q-104 2 -181 1q-206 0 -218 -12q35 -168 35 -258l299 -25l299 -26l20 -82q-22 -9 -74 -8h-22 q-227 6 -506 6q0 -43 -2 -133v-133q-12 10 -41 6q-47 -6 -39 -6q-23 57 -22 195q0 18 2 55v51q0 158 -45 158q-25 0 -31 -8.5t-12 -8.5v58l19 53q19 53 20 98q0 23 -4 45v41q72 35 213 35q55 0 172.5 -7t171.5 -7q82 0 137 12q23 -8 63 -33v-45z" />
<glyph unicode="&#xfb02;" horiz-adv-x="1826" d="M1798 29q-37 -6 -88 -6q-70 0 -175 10t-113 10q-18 0 -150 -16q-150 -20 -221 -27q-63 -4 -121 -63q-82 25 -82 167q0 33 6 105q5 49 5 75q0 9 -1 15q-2 41 -23.5 147.5t-21.5 126.5q0 61 43 105q82 -74 92 -264q2 -152 3 -303h831q0 -8 8 -41t8 -41zM782 690 q-27 -27 -76 -51.5t-81 -24.5q-18 0 -49 27t-48 27q-104 2 -181 1q-206 0 -218 -12q35 -168 35 -258l299 -25l299 -26l20 -82q-22 -9 -74 -8h-22q-227 6 -506 6q0 -43 -2 -133v-133q-12 10 -41 6q-47 -6 -39 -6q-23 57 -22 195q0 18 2 55v51q0 158 -45 158q-25 0 -31 -8.5 t-12 -8.5v58l19 53q19 53 20 98q0 23 -4 45v41q72 35 213 35q55 0 172.5 -7t171.5 -7q82 0 137 12q23 -8 63 -33v-45z" />
<glyph unicode="&#xfb03;" horiz-adv-x="1931" d="M1842 -8h-66q-10 10 -35 39q-57 465 -57 596q0 27 24 45l37 24q66 -61 74 -149q23 -267 23 -355v-14v-186zM1583 690q-27 -27 -76 -51.5t-81 -24.5q-18 0 -49 27t-48 27q-104 2 -181 1q-206 0 -218 -12q35 -168 35 -258l299 -25l299 -26l20 -82q-22 -9 -74 -8h-22 q-227 6 -506 6q0 -43 -2 -133v-133q-12 10 -41 6q-47 -6 -39 -6q-23 57 -22 195q0 18 2 55v51q0 158 -45 158q-25 0 -31 -8.5t-12 -8.5v58l19 53q19 53 20 98q0 23 -4 45v41q72 35 213 35q55 0 172.5 -7t171.5 -7q82 0 137 12q23 -8 63 -33v-45zM782 690q-27 -27 -76 -51.5 t-81 -24.5q-18 0 -49 27t-48 27q-104 2 -181 1q-206 0 -218 -12q35 -168 35 -258l299 -25l299 -26l20 -82q-22 -9 -74 -8h-22q-227 6 -506 6q0 -43 -2 -133v-133q-12 10 -41 6q-47 -6 -39 -6q-23 57 -22 195q0 18 2 55v51q0 158 -45 158q-25 0 -31 -8.5t-12 -8.5v58l19 53 q19 53 20 98q0 23 -4 45v41q72 35 213 35q55 0 172.5 -7t171.5 -7q82 0 137 12q23 -8 63 -33v-45z" />
<glyph unicode="&#xfb04;" horiz-adv-x="2627" d="M2599 29q-37 -6 -88 -6q-70 0 -175 10t-113 10q-18 0 -150 -16q-150 -20 -221 -27q-63 -4 -121 -63q-82 25 -82 167q0 33 6 105q5 49 5 75q0 9 -1 15q-2 41 -23.5 147.5t-21.5 126.5q0 61 43 105q82 -74 92 -264q2 -152 3 -303h831q0 -8 8 -41t8 -41zM1583 690 q-27 -27 -76 -51.5t-81 -24.5q-18 0 -49 27t-48 27q-104 2 -181 1q-206 0 -218 -12q35 -168 35 -258l299 -25l299 -26l20 -82q-22 -9 -74 -8h-22q-227 6 -506 6q0 -43 -2 -133v-133q-12 10 -41 6q-47 -6 -39 -6q-23 57 -22 195q0 18 2 55v51q0 158 -45 158q-25 0 -31 -8.5 t-12 -8.5v58l19 53q19 53 20 98q0 23 -4 45v41q72 35 213 35q55 0 172.5 -7t171.5 -7q82 0 137 12q23 -8 63 -33v-45zM782 690q-27 -27 -76 -51.5t-81 -24.5q-18 0 -49 27t-48 27q-104 2 -181 1q-206 0 -218 -12q35 -168 35 -258l299 -25l299 -26l20 -82q-22 -9 -74 -8h-22 q-227 6 -506 6q0 -43 -2 -133v-133q-12 10 -41 6q-47 -6 -39 -6q-23 57 -22 195q0 18 2 55v51q0 158 -45 158q-25 0 -31 -8.5t-12 -8.5v58l19 53q19 53 20 98q0 23 -4 45v41q72 35 213 35q55 0 172.5 -7t171.5 -7q82 0 137 12q23 -8 63 -33v-45z" />
</font>
</defs>
</svg>
